<svg xmlns="http://www.w3.org/2000/svg" xmlns:xlink="http://www.w3.org/1999/xlink" width="108" height="108" viewBox="0 0 108 108">
  <defs>
    <filter id="Trazado_982538" x="0" y="0" width="108" height="108" filterUnits="userSpaceOnUse">
      <feOffset dy="3" input="SourceAlpha"/>
      <feGaussianBlur stdDeviation="3" result="blur"/>
      <feFlood flood-opacity="0.161"/>
      <feComposite operator="in" in2="blur"/>
      <feComposite in="SourceGraphic"/>
    </filter>
    <clipPath id="clip-path">
      <rect id="Rectángulo_408178" data-name="Rectángulo 408178" width="47.998" height="51.548" fill="none"/>
    </clipPath>
  </defs>
  <g id="Grupo_1151643" data-name="Grupo 1151643" transform="translate(-201 -6426)">
    <g id="Grupo_1150893" data-name="Grupo 1150893" transform="translate(0 3457)">
      <g transform="matrix(1, 0, 0, 1, 201, 2969)" filter="url(#Trazado_982538)">
        <g id="Trazado_982538-2" data-name="Trazado 982538" transform="translate(9 6)" fill="#f3f3f3">
          <path d="M 45 88.5 C 39.12687683105469 88.5 33.43022537231445 87.35007476806641 28.06830024719238 85.08217620849609 C 22.88852500915527 82.89131164550781 18.23629951477051 79.75458526611328 14.2408504486084 75.75914764404297 C 10.24541282653809 71.76370239257812 7.108687400817871 67.11147308349609 4.917825222015381 61.93170166015625 C 2.649924993515015 56.56977462768555 1.5 50.87312316894531 1.5 45 C 1.5 39.12687683105469 2.649924993515015 33.43022537231445 4.917825222015381 28.06830024719238 C 7.108687400817871 22.88852500915527 10.24541282653809 18.23629951477051 14.2408504486084 14.2408504486084 C 18.23629951477051 10.24541282653809 22.88852500915527 7.108687400817871 28.06830024719238 4.917825222015381 C 33.43022537231445 2.649924993515015 39.12687683105469 1.5 45 1.5 C 50.87312316894531 1.5 56.56977462768555 2.649924993515015 61.93170166015625 4.917825222015381 C 67.11147308349609 7.108687400817871 71.76370239257812 10.24541282653809 75.75914764404297 14.2408504486084 C 79.75458526611328 18.23629951477051 82.89131164550781 22.88852500915527 85.08217620849609 28.06830024719238 C 87.35007476806641 33.43022537231445 88.5 39.12687683105469 88.5 45 C 88.5 50.87312316894531 87.35007476806641 56.56977462768555 85.08217620849609 61.93170166015625 C 82.89131164550781 67.11147308349609 79.75458526611328 71.76370239257812 75.75914764404297 75.75914764404297 C 71.76370239257812 79.75458526611328 67.11147308349609 82.89131164550781 61.93170166015625 85.08217620849609 C 56.56977462768555 87.35007476806641 50.87312316894531 88.5 45 88.5 Z" stroke="none"/>
          <path d="M 45 3 C 39.32871246337891 3 33.82865524291992 4.110054016113281 28.65262985229492 6.299339294433594 C 23.65165710449219 8.414573669433594 19.15968322753906 11.44334411621094 15.301513671875 15.301513671875 C 11.44334411621094 19.15968322753906 8.414573669433594 23.65165710449219 6.299339294433594 28.65262985229492 C 4.110054016113281 33.82865524291992 3 39.32871246337891 3 45 C 3 50.67128753662109 4.110054016113281 56.17134475708008 6.299339294433594 61.34737396240234 C 8.414573669433594 66.34834289550781 11.44334411621094 70.84031677246094 15.301513671875 74.698486328125 C 19.15968322753906 78.55665588378906 23.65165710449219 81.58542633056641 28.65262985229492 83.70066070556641 C 33.82865524291992 85.88994598388672 39.32871246337891 87 45 87 C 50.67128753662109 87 56.17134475708008 85.88994598388672 61.34737396240234 83.70066070556641 C 66.34834289550781 81.58542633056641 70.84031677246094 78.55665588378906 74.698486328125 74.698486328125 C 78.55665588378906 70.84031677246094 81.58542633056641 66.34834289550781 83.70066070556641 61.34737396240234 C 85.88994598388672 56.17134475708008 87 50.67128753662109 87 45 C 87 39.32871246337891 85.88994598388672 33.82865524291992 83.70066070556641 28.65262985229492 C 81.58542633056641 23.65165710449219 78.55665588378906 19.15968322753906 74.698486328125 15.301513671875 C 70.84031677246094 11.44334411621094 66.34834289550781 8.414573669433594 61.34737396240234 6.299339294433594 C 56.17134475708008 4.110054016113281 50.67128753662109 3 45 3 M 45 0 C 69.85281372070312 0 90 20.14718627929688 90 45 C 90 69.85281372070312 69.85281372070312 90 45 90 C 20.14718627929688 90 0 69.85281372070312 0 45 C 0 20.14718627929688 20.14718627929688 0 45 0 Z" stroke="none" fill="#fd7940"/>
        </g>
      </g>
    </g>
    <g id="Grupo_1151621" data-name="Grupo 1151621" transform="translate(231.002 6450.226)" clip-path="url(#clip-path)">
      <path id="Trazado_986334" data-name="Trazado 986334" d="M155.1,0a3.3,3.3,0,0,0-3.3,3.3V8.866a.682.682,0,0,0,.682.682h5.236a.682.682,0,0,0,.682-.682V3.3A3.3,3.3,0,0,0,155.1,0" transform="translate(-131.101 -0.003)" fill="#f9b844"/>
      <path id="Trazado_986335" data-name="Trazado 986335" d="M169.972,3.3V8.863a.682.682,0,0,1-.682.682h-2.947a.682.682,0,0,0,.682-.682V3.3A3.3,3.3,0,0,0,165.2.349,3.26,3.26,0,0,1,166.673,0a3.3,3.3,0,0,1,3.3,3.3" transform="translate(-142.674)" fill="#e79531"/>
      <path id="Trazado_986336" data-name="Trazado 986336" d="M157.718,9.548h-5.236a.682.682,0,0,1-.682-.682V3.3a3.3,3.3,0,1,1,6.6,0V8.866a.682.682,0,0,1-.682.682m-4.554-1.364h3.873V3.3a1.936,1.936,0,0,0-3.873,0Z" transform="translate(-131.101 -0.003)"/>
      <path id="Trazado_986337" data-name="Trazado 986337" d="M139.2,283.74a6.907,6.907,0,1,1-3.181-5.809,6.85,6.85,0,0,1,3.181,5.809" transform="translate(-108.301 -239.091)" fill="#f9b844"/>
      <path id="Trazado_986338" data-name="Trazado 986338" d="M139.2,290.649a6.85,6.85,0,0,1-.574,2.754H125.974a6.894,6.894,0,0,1,2.607-8.563h7.437a6.9,6.9,0,0,1,3.181,5.809" transform="translate(-108.301 -246)" fill="#e79531"/>
      <path id="Trazado_986339" data-name="Trazado 986339" d="M132.3,290.637a6.9,6.9,0,1,1,5.376-2.575.682.682,0,0,1-1.062-.855,5.475,5.475,0,0,0,1.222-3.47,5.529,5.529,0,1,0-4.564,5.451.682.682,0,1,1,.238,1.343,6.959,6.959,0,0,1-1.21.106" transform="translate(-108.301 -239.089)"/>
      <path id="Trazado_986340" data-name="Trazado 986340" d="M43.716,270.837H4.282a4.282,4.282,0,1,0,0,8.563H43.716a4.282,4.282,0,1,0,0-8.563" transform="translate(0 -233.907)" fill="#ffecae"/>
      <path id="Trazado_986341" data-name="Trazado 986341" d="M299.577,275.122A4.287,4.287,0,0,1,295.3,279.4h-4a4.282,4.282,0,1,0,0-8.563h4a4.286,4.286,0,0,1,4.282,4.282" transform="translate(-251.579 -233.909)" fill="#f8d75d"/>
      <path id="Trazado_986342" data-name="Trazado 986342" d="M47.7,30.869a14.1,14.1,0,0,0-6.191,11.667V54.154c0,2.63-2.131,7.336-4.227,7.336a.682.682,0,1,0,0,1.364H73.935a.682.682,0,1,0,0-1.364c-2.1,0-4.227-4.706-4.227-7.336V42.536A14.093,14.093,0,0,0,47.7,30.869" transform="translate(-31.609 -24.559)" fill="#f8d75d"/>
      <path id="Trazado_986343" data-name="Trazado 986343" d="M181.846,62.175a.682.682,0,0,1-.682.682h-4.156a.682.682,0,0,0,0-1.364c-2.1,0-4.227-4.707-4.227-7.336V42.539A14.121,14.121,0,0,0,160.76,28.593a14.107,14.107,0,0,1,16.177,13.947V54.157c0,2.629,2.131,7.336,4.227,7.336a.682.682,0,0,1,.682.682" transform="translate(-138.839 -24.562)" fill="#f9b844"/>
      <path id="Trazado_986344" data-name="Trazado 986344" d="M45.683,55.583A.682.682,0,0,1,45,54.915a6.149,6.149,0,0,1,3-5.483.682.682,0,0,1,.646,1.2,4.787,4.787,0,0,0-2.282,4.254.682.682,0,0,1-.667.7h-.014" transform="translate(-38.864 -42.622)"/>
      <path id="Trazado_986345" data-name="Trazado 986345" d="M16.72,52.533a.682.682,0,0,1-.682-.673,14.738,14.738,0,0,1,2.144-8.347.682.682,0,0,1,1.145.741A13.406,13.406,0,0,0,17.4,51.842a.682.682,0,0,1-.673.691H16.72" transform="translate(-13.85 -37.311)"/>
      <path id="Trazado_986346" data-name="Trazado 986346" d="M52.368,18.157a.682.682,0,0,1-.386-1.244,7.744,7.744,0,0,1,1.577-.86.682.682,0,0,1,.465,1.282,6.6,6.6,0,0,0-1.271.7.679.679,0,0,1-.385.119" transform="translate(-44.638 -13.828)"/>
      <path id="Trazado_986347" data-name="Trazado 986347" d="M280.968,55.584h-.014a.682.682,0,0,1-.667-.7A4.787,4.787,0,0,0,278,50.634a.682.682,0,0,1,.647-1.2,6.149,6.149,0,0,1,3,5.483.682.682,0,0,1-.681.668" transform="translate(-239.79 -42.623)"/>
      <path id="Trazado_986348" data-name="Trazado 986348" d="M313.747,52.533h-.009a.682.682,0,0,1-.673-.691,13.406,13.406,0,0,0-1.925-7.588.682.682,0,0,1,1.145-.741,14.738,14.738,0,0,1,2.144,8.347.682.682,0,0,1-.682.673" transform="translate(-268.62 -37.311)"/>
      <path id="Trazado_986349" data-name="Trazado 986349" d="M281.989,18.157a.679.679,0,0,1-.385-.119,6.572,6.572,0,0,0-1.272-.7.682.682,0,0,1,.465-1.282,7.742,7.742,0,0,1,1.577.86.682.682,0,0,1-.386,1.244" transform="translate(-241.722 -13.828)"/>
      <path id="Trazado_986350" data-name="Trazado 986350" d="M81.272,174.156a3.136,3.136,0,1,1-3.136-3.136,3.136,3.136,0,0,1,3.136,3.136" transform="translate(-64.773 -147.7)" fill="#fcedc2"/>
      <path id="Trazado_986351" data-name="Trazado 986351" d="M121,132.975a.954.954,0,1,1,.954.954.955.955,0,0,1-.954-.954" transform="translate(-104.501 -114.018)" fill="#fcedc2"/>
      <path id="Trazado_986352" data-name="Trazado 986352" d="M135.388,49.924a.682.682,0,0,1-.682-.682V42.536a12.737,12.737,0,0,0-20.185-10.331.682.682,0,0,1-.8-1.105A14.1,14.1,0,0,1,136.07,42.536v6.706a.682.682,0,0,1-.682.682" transform="translate(-97.972 -24.559)"/>
      <path id="Trazado_986353" data-name="Trazado 986353" d="M73.934,147.836H37.281a.682.682,0,1,1,0-1.364c2.1,0,4.227-4.706,4.227-7.336V127.519a.682.682,0,0,1,1.364,0v11.618a12.375,12.375,0,0,1-2.914,7.336h31.3a12.375,12.375,0,0,1-2.914-7.336.682.682,0,0,1,1.364,0c0,2.63,2.131,7.336,4.227,7.336a.682.682,0,0,1,0,1.364" transform="translate(-31.608 -109.542)"/>
      <path id="Trazado_986354" data-name="Trazado 986354" d="M84.576,76.337a.682.682,0,0,1-.6-1c.18-.341.376-.679.583-1a.682.682,0,1,1,1.15.733c-.187.293-.364.6-.526.906a.682.682,0,0,1-.6.364" transform="translate(-72.455 -63.926)"/>
      <path id="Trazado_986355" data-name="Trazado 986355" d="M23.045,293.543a2.523,2.523,0,1,1-2.523-2.523,2.523,2.523,0,0,1,2.523,2.523" transform="translate(-15.546 -251.338)" fill="#fffbee"/>
      <path id="Trazado_986356" data-name="Trazado 986356" d="M86,282.111a1.091,1.091,0,1,1,1.091,1.091A1.091,1.091,0,0,1,86,282.111" transform="translate(-74.273 -242.701)" fill="#fffbee"/>
      <path id="Trazado_986357" data-name="Trazado 986357" d="M43.716,279.4H4.282a4.282,4.282,0,1,1,0-8.563H43.716a4.282,4.282,0,1,1,0,8.563M4.282,272.2a2.918,2.918,0,1,0,0,5.836H43.716a2.918,2.918,0,1,0,0-5.836Z" transform="translate(0 -233.907)"/>
    </g>
  </g>
</svg>
