<svg xmlns="http://www.w3.org/2000/svg" xmlns:xlink="http://www.w3.org/1999/xlink" width="108" height="108" viewBox="0 0 108 108">
  <defs>
    <filter id="Trazado_982538" x="0" y="0" width="108" height="108" filterUnits="userSpaceOnUse">
      <feOffset dy="3" input="SourceAlpha"/>
      <feGaussianBlur stdDeviation="3" result="blur"/>
      <feFlood flood-opacity="0.161"/>
      <feComposite operator="in" in2="blur"/>
      <feComposite in="SourceGraphic"/>
    </filter>
    <clipPath id="clip-path">
      <rect id="Rect치ngulo_408180" data-name="Rect치ngulo 408180" width="58.665" height="62" fill="none"/>
    </clipPath>
  </defs>
  <g id="Grupo_1151626" data-name="Grupo 1151626" transform="translate(-201 -5672)">
    <g id="Grupo_1151565" data-name="Grupo 1151565" transform="translate(0 -4618)">
      <g id="Grupo_1150893" data-name="Grupo 1150893" transform="translate(0 7321)">
        <g transform="matrix(1, 0, 0, 1, 201, 2969)" filter="url(#Trazado_982538)">
          <g id="Trazado_982538-2" data-name="Trazado 982538" transform="translate(9 6)" fill="#f3f3f3">
            <path d="M 45 88.5 C 39.12687683105469 88.5 33.43022537231445 87.35007476806641 28.06830024719238 85.08217620849609 C 22.88852500915527 82.89131164550781 18.23629951477051 79.75458526611328 14.2408504486084 75.75914764404297 C 10.24541282653809 71.76370239257812 7.108687400817871 67.11147308349609 4.917825222015381 61.93170166015625 C 2.649924993515015 56.56977462768555 1.5 50.87312316894531 1.5 45 C 1.5 39.12687683105469 2.649924993515015 33.43022537231445 4.917825222015381 28.06830024719238 C 7.108687400817871 22.88852500915527 10.24541282653809 18.23629951477051 14.2408504486084 14.2408504486084 C 18.23629951477051 10.24541282653809 22.88852500915527 7.108687400817871 28.06830024719238 4.917825222015381 C 33.43022537231445 2.649924993515015 39.12687683105469 1.5 45 1.5 C 50.87312316894531 1.5 56.56977462768555 2.649924993515015 61.93170166015625 4.917825222015381 C 67.11147308349609 7.108687400817871 71.76370239257812 10.24541282653809 75.75914764404297 14.2408504486084 C 79.75458526611328 18.23629951477051 82.89131164550781 22.88852500915527 85.08217620849609 28.06830024719238 C 87.35007476806641 33.43022537231445 88.5 39.12687683105469 88.5 45 C 88.5 50.87312316894531 87.35007476806641 56.56977462768555 85.08217620849609 61.93170166015625 C 82.89131164550781 67.11147308349609 79.75458526611328 71.76370239257812 75.75914764404297 75.75914764404297 C 71.76370239257812 79.75458526611328 67.11147308349609 82.89131164550781 61.93170166015625 85.08217620849609 C 56.56977462768555 87.35007476806641 50.87312316894531 88.5 45 88.5 Z" stroke="none"/>
            <path d="M 45 3 C 39.32871246337891 3 33.82865524291992 4.110054016113281 28.65262985229492 6.299339294433594 C 23.65165710449219 8.414573669433594 19.15968322753906 11.44334411621094 15.301513671875 15.301513671875 C 11.44334411621094 19.15968322753906 8.414573669433594 23.65165710449219 6.299339294433594 28.65262985229492 C 4.110054016113281 33.82865524291992 3 39.32871246337891 3 45 C 3 50.67128753662109 4.110054016113281 56.17134475708008 6.299339294433594 61.34737396240234 C 8.414573669433594 66.34834289550781 11.44334411621094 70.84031677246094 15.301513671875 74.698486328125 C 19.15968322753906 78.55665588378906 23.65165710449219 81.58542633056641 28.65262985229492 83.70066070556641 C 33.82865524291992 85.88994598388672 39.32871246337891 87 45 87 C 50.67128753662109 87 56.17134475708008 85.88994598388672 61.34737396240234 83.70066070556641 C 66.34834289550781 81.58542633056641 70.84031677246094 78.55665588378906 74.698486328125 74.698486328125 C 78.55665588378906 70.84031677246094 81.58542633056641 66.34834289550781 83.70066070556641 61.34737396240234 C 85.88994598388672 56.17134475708008 87 50.67128753662109 87 45 C 87 39.32871246337891 85.88994598388672 33.82865524291992 83.70066070556641 28.65262985229492 C 81.58542633056641 23.65165710449219 78.55665588378906 19.15968322753906 74.698486328125 15.301513671875 C 70.84031677246094 11.44334411621094 66.34834289550781 8.414573669433594 61.34737396240234 6.299339294433594 C 56.17134475708008 4.110054016113281 50.67128753662109 3 45 3 M 45 0 C 69.85281372070312 0 90 20.14718627929688 90 45 C 90 69.85281372070312 69.85281372070312 90 45 90 C 20.14718627929688 90 0 69.85281372070312 0 45 C 0 20.14718627929688 20.14718627929688 0 45 0 Z" stroke="none" fill="#fd7940"/>
          </g>
        </g>
      </g>
    </g>
    <g id="Grupo_1151625" data-name="Grupo 1151625" transform="translate(226.335 5697)">
      <g id="Grupo_1151624" data-name="Grupo 1151624" clip-path="url(#clip-path)">
        <path id="Trazado_986358" data-name="Trazado 986358" d="M5.948,8.423H50.516a2.455,2.455,0,0,0,2.447-2.447V3.444A2.453,2.453,0,0,0,50.516,1H3.443A2.449,2.449,0,0,0,1,3.444V5.976A2.452,2.452,0,0,0,3.443,8.423Z" fill="#757575" fill-rule="evenodd"/>
        <path id="Trazado_986359" data-name="Trazado 986359" d="M45.842,3.443V5.975A2.455,2.455,0,0,1,43.4,8.422h7.121a2.455,2.455,0,0,0,2.447-2.447V3.443A2.452,2.452,0,0,0,50.516,1H43.4a2.452,2.452,0,0,1,2.447,2.443" fill="#616161" fill-rule="evenodd"/>
        <rect id="Rect치ngulo_408179" data-name="Rect치ngulo 408179" width="42.067" height="43.591" transform="translate(5.948 8.423)" fill="#f5f5f5"/>
        <path id="Trazado_986360" data-name="Trazado 986360" d="M28.858,16.038H17.189a1,1,0,0,1,0-2H28.858a1,1,0,0,1,0,2"/>
        <path id="Trazado_986361" data-name="Trazado 986361" d="M28.858,22.221H17.189a1,1,0,0,1,0-2H28.858a1,1,0,1,1,0,2"/>
        <path id="Trazado_986362" data-name="Trazado 986362" d="M12.553,16.038a1.007,1.007,0,1,1,.321-1.964.985.985,0,0,1,.638,1.249l-.01.031a1,1,0,0,1-.949.684"/>
        <path id="Trazado_986363" data-name="Trazado 986363" d="M12.553,22.252a1.007,1.007,0,1,1,.321-1.964.985.985,0,0,1,.638,1.249l-.01.031a1,1,0,0,1-.949.684"/>
        <path id="Trazado_986364" data-name="Trazado 986364" d="M26.98,62a3.437,3.437,0,1,1,3.437-3.436A3.44,3.44,0,0,1,26.98,62m0-4.873a1.437,1.437,0,1,0,1.437,1.437,1.439,1.439,0,0,0-1.437-1.437"/>
        <path id="Trazado_986365" data-name="Trazado 986365" d="M5.948,8.423H48.015v3.33H5.948Z" fill="#e0e0e0" fill-rule="evenodd"/>
        <path id="Trazado_986366" data-name="Trazado 986366" d="M48.015,32.309a9.65,9.65,0,1,0-9.65-9.65,9.67,9.67,0,0,0,9.65,9.65" fill="#ffca28" fill-rule="evenodd"/>
        <path id="Trazado_986367" data-name="Trazado 986367" d="M48.015,14.86a9.659,9.659,0,0,1-2.228,17.193,9.787,9.787,0,0,0,2.228.256,9.65,9.65,0,1,0-3.1-18.79,9.614,9.614,0,0,1,3.1,1.341" fill="#ffb300" fill-rule="evenodd"/>
        <path id="Trazado_986368" data-name="Trazado 986368" d="M48.015,33.309a10.65,10.65,0,1,1,10.65-10.651,10.662,10.662,0,0,1-10.65,10.651m0-19.3a8.65,8.65,0,1,0,8.65,8.65,8.659,8.659,0,0,0-8.65-8.65"/>
        <path id="Trazado_986369" data-name="Trazado 986369" d="M48,27.919a3.246,3.246,0,0,1-3.4-3.114A1,1,0,0,1,46.6,24.66a1.264,1.264,0,0,0,1.41,1.259c.216-.007,1.421-.039,1.421-.961,0-.408,0-1.09-1.552-1.309-2.924-.527-3.159-2.481-3.041-3.6A3.265,3.265,0,0,1,48.4,17.429a2.787,2.787,0,0,1,2.775,2.71,1,1,0,0,1-.985,1.015h-.015a1,1,0,0,1-1-.985c-.008-.594-.576-.721-.913-.745-.506-.039-1.339.174-1.447.882-.06.58,0,1.12,1.375,1.369,2.81.4,3.235,2.227,3.235,3.283,0,1.743-1.4,2.961-3.412,2.961Z"/>
        <path id="Trazado_986370" data-name="Trazado 986370" d="M48.039,29.38a1,1,0,0,1-1-1V26.919a1,1,0,0,1,2,0V28.38a1,1,0,0,1-1,1m0-9.958a1,1,0,0,1-1-1v-1.4a1,1,0,1,1,2,0v1.4a1,1,0,0,1-1,1"/>
        <path id="Trazado_986371" data-name="Trazado 986371" d="M28.858,28.409H17.189a1,1,0,0,1,0-2H28.858a1,1,0,0,1,0,2"/>
        <path id="Trazado_986372" data-name="Trazado 986372" d="M12.553,27.6a1.006,1.006,0,1,1,.351-1.953.988.988,0,0,1,.6,1.27l-.011.028a1,1,0,0,1-.938.655"/>
        <path id="Trazado_986373" data-name="Trazado 986373" d="M5.948,53.014a1,1,0,0,1-.687-1.727L18.871,38.43a1,1,0,0,1,1.025-.214l6.876,2.476,13.88-11.86a1,1,0,1,1,1.3,1.52L27.629,42.59a1,1,0,0,1-.988.18L19.8,40.306,6.635,52.741a.994.994,0,0,1-.687.273"/>
        <path id="Trazado_986374" data-name="Trazado 986374" d="M26.98,53.014a1,1,0,0,1-1-1V41.829a1,1,0,0,1,2,0V52.014a1,1,0,0,1-1,1"/>
        <path id="Trazado_986375" data-name="Trazado 986375" d="M19.558,53.014a1,1,0,0,1-1-1V39.157a1,1,0,0,1,2,0V52.014a1,1,0,0,1-1,1"/>
        <path id="Trazado_986376" data-name="Trazado 986376" d="M34.406,53.014a1,1,0,0,1-1-1V35.485a1,1,0,0,1,2,0V52.014a1,1,0,0,1-1,1"/>
        <path id="Trazado_986377" data-name="Trazado 986377" d="M26.98,57.127a1,1,0,0,1-1-1V52.014a1,1,0,0,1,2,0v4.113a1,1,0,0,1-1,1"/>
        <path id="Trazado_986378" data-name="Trazado 986378" d="M41.828,53.014a1,1,0,0,1-1-1V30.068a1,1,0,0,1,2,0V52.014a1,1,0,0,1-1,1"/>
        <path id="Trazado_986379" data-name="Trazado 986379" d="M12.132,53.014a1,1,0,0,1-1-1V46.172a1,1,0,0,1,2,0v5.842a1,1,0,0,1-1,1"/>
        <path id="Trazado_986380" data-name="Trazado 986380" d="M50.516,9.422H3.443A3.449,3.449,0,0,1,0,5.976V3.443A3.448,3.448,0,0,1,3.443,0H50.516a3.449,3.449,0,0,1,3.447,3.443V5.976a3.45,3.45,0,0,1-3.447,3.446M3.443,2A1.444,1.444,0,0,0,2,3.443V5.976A1.446,1.446,0,0,0,3.443,7.422H50.516a1.448,1.448,0,0,0,1.447-1.446V3.443A1.446,1.446,0,0,0,50.516,2Z"/>
        <path id="Trazado_986381" data-name="Trazado 986381" d="M48.015,53.014H5.948a1,1,0,0,1-1-1V8.423a1,1,0,0,1,1-1H48.015a1,1,0,0,1,1,1v4.586a1,1,0,0,1-2,0V9.423H6.948V51.014H47.015V32.309a1,1,0,0,1,2,0V52.014a1,1,0,0,1-1,1"/>
      </g>
    </g>
  </g>
</svg>
