<svg xmlns="http://www.w3.org/2000/svg" xmlns:xlink="http://www.w3.org/1999/xlink" width="108" height="108" viewBox="0 0 108 108">
  <defs>
    <filter id="Trazado_982538" x="0" y="0" width="108" height="108" filterUnits="userSpaceOnUse">
      <feOffset dy="3" input="SourceAlpha"/>
      <feGaussianBlur stdDeviation="3" result="blur"/>
      <feFlood flood-opacity="0.161"/>
      <feComposite operator="in" in2="blur"/>
      <feComposite in="SourceGraphic"/>
    </filter>
    <clipPath id="clip-path">
      <rect id="Rectángulo_408182" data-name="Rectángulo 408182" width="56.731" height="58.516" fill="none"/>
    </clipPath>
  </defs>
  <g id="Grupo_1151629" data-name="Grupo 1151629" transform="translate(-201 -934)">
    <g id="Grupo_1151565" data-name="Grupo 1151565" transform="translate(0 -9356)">
      <g id="Grupo_1150893" data-name="Grupo 1150893" transform="translate(0 7321)">
        <g transform="matrix(1, 0, 0, 1, 201, 2969)" filter="url(#Trazado_982538)">
          <g id="Trazado_982538-2" data-name="Trazado 982538" transform="translate(9 6)" fill="#f3f3f3">
            <path d="M 45 88.5 C 39.12687683105469 88.5 33.43022537231445 87.35007476806641 28.06830024719238 85.08217620849609 C 22.88852500915527 82.89131164550781 18.23629951477051 79.75458526611328 14.2408504486084 75.75914764404297 C 10.24541282653809 71.76370239257812 7.108687400817871 67.11147308349609 4.917825222015381 61.93170166015625 C 2.649924993515015 56.56977462768555 1.5 50.87312316894531 1.5 45 C 1.5 39.12687683105469 2.649924993515015 33.43022537231445 4.917825222015381 28.06830024719238 C 7.108687400817871 22.88852500915527 10.24541282653809 18.23629951477051 14.2408504486084 14.2408504486084 C 18.23629951477051 10.24541282653809 22.88852500915527 7.108687400817871 28.06830024719238 4.917825222015381 C 33.43022537231445 2.649924993515015 39.12687683105469 1.5 45 1.5 C 50.87312316894531 1.5 56.56977462768555 2.649924993515015 61.93170166015625 4.917825222015381 C 67.11147308349609 7.108687400817871 71.76370239257812 10.24541282653809 75.75914764404297 14.2408504486084 C 79.75458526611328 18.23629951477051 82.89131164550781 22.88852500915527 85.08217620849609 28.06830024719238 C 87.35007476806641 33.43022537231445 88.5 39.12687683105469 88.5 45 C 88.5 50.87312316894531 87.35007476806641 56.56977462768555 85.08217620849609 61.93170166015625 C 82.89131164550781 67.11147308349609 79.75458526611328 71.76370239257812 75.75914764404297 75.75914764404297 C 71.76370239257812 79.75458526611328 67.11147308349609 82.89131164550781 61.93170166015625 85.08217620849609 C 56.56977462768555 87.35007476806641 50.87312316894531 88.5 45 88.5 Z" stroke="none"/>
            <path d="M 45 3 C 39.32871246337891 3 33.82865524291992 4.110054016113281 28.65262985229492 6.299339294433594 C 23.65165710449219 8.414573669433594 19.15968322753906 11.44334411621094 15.301513671875 15.301513671875 C 11.44334411621094 19.15968322753906 8.414573669433594 23.65165710449219 6.299339294433594 28.65262985229492 C 4.110054016113281 33.82865524291992 3 39.32871246337891 3 45 C 3 50.67128753662109 4.110054016113281 56.17134475708008 6.299339294433594 61.34737396240234 C 8.414573669433594 66.34834289550781 11.44334411621094 70.84031677246094 15.301513671875 74.698486328125 C 19.15968322753906 78.55665588378906 23.65165710449219 81.58542633056641 28.65262985229492 83.70066070556641 C 33.82865524291992 85.88994598388672 39.32871246337891 87 45 87 C 50.67128753662109 87 56.17134475708008 85.88994598388672 61.34737396240234 83.70066070556641 C 66.34834289550781 81.58542633056641 70.84031677246094 78.55665588378906 74.698486328125 74.698486328125 C 78.55665588378906 70.84031677246094 81.58542633056641 66.34834289550781 83.70066070556641 61.34737396240234 C 85.88994598388672 56.17134475708008 87 50.67128753662109 87 45 C 87 39.32871246337891 85.88994598388672 33.82865524291992 83.70066070556641 28.65262985229492 C 81.58542633056641 23.65165710449219 78.55665588378906 19.15968322753906 74.698486328125 15.301513671875 C 70.84031677246094 11.44334411621094 66.34834289550781 8.414573669433594 61.34737396240234 6.299339294433594 C 56.17134475708008 4.110054016113281 50.67128753662109 3 45 3 M 45 0 C 69.85281372070312 0 90 20.14718627929688 90 45 C 90 69.85281372070312 69.85281372070312 90 45 90 C 20.14718627929688 90 0 69.85281372070312 0 45 C 0 20.14718627929688 20.14718627929688 0 45 0 Z" stroke="none" fill="#fd7940"/>
          </g>
        </g>
      </g>
    </g>
    <g id="Grupo_1151628" data-name="Grupo 1151628" transform="translate(224.891 954.742)">
      <g id="Grupo_1151627" data-name="Grupo 1151627" clip-path="url(#clip-path)">
        <path id="Trazado_986382" data-name="Trazado 986382" d="M25.573,55.315H57.224V38.1a10.132,10.132,0,0,0-8-9.877H32.459A10.172,10.172,0,0,0,25.573,33.5Z" transform="translate(-1.437 -1.586)" fill="#40c3ff" fill-rule="evenodd"/>
        <path id="Trazado_986383" data-name="Trazado 986383" d="M32.869,28.213l2.987,7.955,2.429-1.644,2.964-2.009L36.412,28H34.959a10.093,10.093,0,0,0-2.09.216" transform="translate(-1.847 -1.573)" fill="#f5f5f5" fill-rule="evenodd"/>
        <path id="Trazado_986384" data-name="Trazado 986384" d="M41.749,32.516l2.946,2,2.448,1.656,2.987-7.954A10.093,10.093,0,0,0,48.04,28H46.587Z" transform="translate(-2.346 -1.573)" fill="#f5f5f5" fill-rule="evenodd"/>
        <path id="Trazado_986385" data-name="Trazado 986385" d="M39.55,38.609,38.525,48.618l3.03,3.67,3.032-3.67L43.564,38.609l-2.184-.972Z" transform="translate(-2.165 -2.115)" fill="#ffca28" fill-rule="evenodd"/>
        <path id="Trazado_986386" data-name="Trazado 986386" d="M36.623,27.73l4.838,4.519L46.3,27.73V23.254a7.02,7.02,0,0,1-9.676,0Z" transform="translate(-2.058 -1.307)" fill="#ffd2b7" fill-rule="evenodd"/>
        <path id="Trazado_986387" data-name="Trazado 986387" d="M32.154,11.159c.143,5.407,1.876,9.146,4.218,11.217a7.022,7.022,0,0,0,9.677,0c2.144-1.9,3.778-5.187,4.146-9.877-2.771-.084-4.1-1.363-5.606-4.867C41,11.618,35.536,11.359,32.154,11.159" transform="translate(-1.807 -0.429)" fill="#ffe5c5" fill-rule="evenodd"/>
        <path id="Trazado_986388" data-name="Trazado 986388" d="M32.144,10.063c0,.244,0,.484.009.723,3.382.2,8.846.458,12.435-3.527,1.505,3.505,2.836,4.784,5.607,4.868.051-.66.08-1.348.08-2.064a9.066,9.066,0,0,0-18.131,0" transform="translate(-1.806 -0.056)" fill="#757575" fill-rule="evenodd"/>
        <path id="Trazado_986389" data-name="Trazado 986389" d="M48.4,12.372c-.475,4.308-2.048,7.364-4.082,9.16a7,7,0,0,1-7.18,1.512,6.989,6.989,0,0,0,9.189-.4c2.144-1.9,3.779-5.187,4.147-9.876a5.745,5.745,0,0,1-2.074-.395" transform="translate(-2.087 -0.695)" fill="#ffd2b7" fill-rule="evenodd"/>
        <path id="Trazado_986390" data-name="Trazado 986390" d="M36.623,23.254v2.51a7.028,7.028,0,0,0,7.48,1.063c1.163-.633,1-.413,1,1.269v.749L46.3,27.73V23.254a6.988,6.988,0,0,1-9.188.4c-.165-.126-.329-.258-.488-.4" transform="translate(-2.058 -1.307)" fill="#fabe99" fill-rule="evenodd"/>
        <path id="Trazado_986391" data-name="Trazado 986391" d="M43.8,30.71h.459a13.617,13.617,0,0,1,4.909.388l1.083-2.884A10.1,10.1,0,0,0,48.156,28H46.7l-1.195,1.115Z" transform="translate(-2.461 -1.573)" fill="#e0e0e0" fill-rule="evenodd"/>
        <path id="Trazado_986392" data-name="Trazado 986392" d="M49.483,31.11c3.236,1.686,5.183,5.82,5.183,9.705v14.5h3.9V38.1a10.134,10.134,0,0,0-8-9.877Z" transform="translate(-2.781 -1.586)" fill="#39ade3" fill-rule="evenodd"/>
        <path id="Trazado_986393" data-name="Trazado 986393" d="M41.676,38.667,42.7,48.676l-2.028,2.455,1,1.215,3.032-3.67L43.685,38.667Z" transform="translate(-2.286 -2.173)" fill="#ffb300" fill-rule="evenodd"/>
        <path id="Trazado_986394" data-name="Trazado 986394" d="M38.608,34.794l.947,3.543h4.014l.949-3.556-2.946-2Z" transform="translate(-2.17 -1.842)" fill="#ffea00" fill-rule="evenodd"/>
        <path id="Trazado_986395" data-name="Trazado 986395" d="M42.354,36.043l-.691,2.293h2.008l.949-3.556-2.946-2-1.23.832,1.6,1.127c.76.465.563.459.311,1.3" transform="translate(-2.273 -1.842)" fill="#ffca28" fill-rule="evenodd"/>
        <path id="Trazado_986396" data-name="Trazado 986396" d="M39.263,2.276a9.091,9.091,0,0,1,9.062,9.066v.391a5.746,5.746,0,0,0,2.074.394c.052-.659.081-1.347.081-2.063a9.054,9.054,0,0,0-14.7-7.086,9.014,9.014,0,0,1,3.485-.7" transform="translate(-2.011 -0.056)" fill="#616161" fill-rule="evenodd"/>
        <path id="Trazado_986397" data-name="Trazado 986397" d="M41.153,24.824A8.677,8.677,0,0,1,34.16,20.97c-1.973-2.684-3.016-6.475-3.016-10.963a10.009,10.009,0,0,1,20.018,0c0,10.18-5.189,14.817-10.009,14.817m0-22.936a8.129,8.129,0,0,0-8.121,8.12c0,8.883,4.209,12.929,8.121,12.929s8.121-4.046,8.121-12.929a8.129,8.129,0,0,0-8.121-8.12" transform="translate(-1.75)"/>
        <path id="Trazado_986398" data-name="Trazado 986398" d="M35.8,37.056a.968.968,0,0,1-.287-.044.948.948,0,0,1-.6-.567l-2.987-7.955a.944.944,0,1,1,1.768-.663l2.566,6.833,3.422-2.318L35.711,28.63A.944.944,0,1,1,37,27.251l4.838,4.518a.943.943,0,0,1-.115,1.471l-5.393,3.653a.948.948,0,0,1-.529.162" transform="translate(-1.791 -1.517)"/>
        <path id="Trazado_986399" data-name="Trazado 986399" d="M47.087,37.056a.948.948,0,0,1-.529-.162L41.164,33.24a.943.943,0,0,1-.115-1.471l4.838-4.518a.944.944,0,1,1,1.288,1.379L43.2,32.341l3.422,2.318,2.566-6.833a.945.945,0,0,1,1.769.663l-2.988,7.955a.945.945,0,0,1-.884.612" transform="translate(-2.29 -1.517)"/>
        <path id="Trazado_986400" data-name="Trazado 986400" d="M43.512,39.344H39.5a.944.944,0,0,1-.912-.7L37.639,35.1a.944.944,0,0,1,1.823-.487l.76,2.843h3.29a.944.944,0,1,1,0,1.888" transform="translate(-2.113 -1.906)"/>
        <path id="Trazado_986401" data-name="Trazado 986401" d="M41.5,53.233h0a.946.946,0,0,1-.728-.343l-3.03-3.67a.946.946,0,0,1-.211-.7l1.024-10.01a.96.96,0,0,1,1.035-.843.944.944,0,0,1,.843,1.034l-.984,9.617L41.5,50.808l2.055-2.484-.984-9.617a.944.944,0,0,1,1.878-.192l1.024,10.01a.942.942,0,0,1-.212.7l-3.032,3.67a.944.944,0,0,1-.728.343" transform="translate(-2.109 -2.117)"/>
        <path id="Trazado_986402" data-name="Trazado 986402" d="M50.141,13.387h-.029c-3.032-.092-4.575-1.6-5.877-4.2-3.905,3.351-9.224,3.04-12.191,2.861a.944.944,0,1,1,.11-1.884c3.12.181,8.337.493,11.677-3.216a.929.929,0,0,1,.857-.3A.95.95,0,0,1,45.4,7.2c1.4,3.263,2.471,4.227,4.766,4.3a.944.944,0,0,1-.026,1.888" transform="translate(-1.751 -0.373)"/>
        <path id="Trazado_986403" data-name="Trazado 986403" d="M43.809,39.343a.944.944,0,0,1-.913-1.187l.949-3.555a.944.944,0,0,1,1.823.486l-.949,3.556a.944.944,0,0,1-.911.7" transform="translate(-2.409 -1.905)"/>
        <path id="Trazado_986404" data-name="Trazado 986404" d="M32.618,57.009a.943.943,0,0,1-.944-.944V42.523a.944.944,0,0,1,1.888,0V56.065a.943.943,0,0,1-.944.944" transform="translate(-1.78 -2.337)"/>
        <path id="Trazado_986405" data-name="Trazado 986405" d="M12.309,29.175H17.3c3.062-.245,5.054-6.934,4.673-9.925H7.639c-.381,2.991,1.611,9.68,4.67,9.925" transform="translate(-0.427 -1.082)" fill="#d66c45" fill-rule="evenodd"/>
        <path id="Trazado_986406" data-name="Trazado 986406" d="M14.432,29.766H11.455a7.967,7.967,0,0,0-7.942,7.942V53.825c-3.266,0-3.433,5.42,0,5.42H25.355A2.753,2.753,0,0,0,27.8,58.007a2.786,2.786,0,0,0-.329-3.375,2.874,2.874,0,0,0-2.116-.808V37.708a7.878,7.878,0,0,0-1.375-4.447,7.976,7.976,0,0,0-5.2-3.375,7.877,7.877,0,0,0-1.366-.12H14.432Z" transform="translate(-0.056 -1.673)" fill="#d66c45" fill-rule="evenodd"/>
        <path id="Trazado_986407" data-name="Trazado 986407" d="M19.392,19.25c.381,2.991-1.612,9.68-4.674,9.925H17.7c3.063-.245,5.055-6.934,4.674-9.925Z" transform="translate(-0.827 -1.082)" fill="#ca572e" fill-rule="evenodd"/>
        <path id="Trazado_986408" data-name="Trazado 986408" d="M24.779,33.261a7.926,7.926,0,0,0-6.566-3.495H15.231a7.964,7.964,0,0,1,7.942,7.942v8.366l0,7.813c0,1.23-.112,1.6.843,1.886,2.158.647,2.1,3.472-.84,3.472h2.982A2.754,2.754,0,0,0,28.6,58.007a2.785,2.785,0,0,0-.33-3.375,2.868,2.868,0,0,0-2.114-.807V37.708a7.879,7.879,0,0,0-1.377-4.447" transform="translate(-0.856 -1.673)" fill="#ca572e" fill-rule="evenodd"/>
        <path id="Trazado_986409" data-name="Trazado 986409" d="M25.3,60.132H3.456A3.424,3.424,0,0,1,0,56.53a3.623,3.623,0,0,1,2.512-3.581v-15.3A8.9,8.9,0,0,1,11.4,28.767h5.958a8.9,8.9,0,0,1,8.887,8.886V52.921a3.556,3.556,0,0,1,2.864,3.548A3.615,3.615,0,0,1,25.3,60.132M11.4,30.655a7.006,7.006,0,0,0-7,7V53.769a.943.943,0,0,1-.944.944A1.665,1.665,0,0,0,1.888,56.53a1.57,1.57,0,0,0,1.569,1.715H25.3a1.751,1.751,0,0,0,1.92-1.776,1.723,1.723,0,0,0-1.92-1.755.943.943,0,0,1-.944-.944V37.653a7.007,7.007,0,0,0-7-7Z" transform="translate(0 -1.617)"/>
        <path id="Trazado_986410" data-name="Trazado 986410" d="M57.168,55.923H29.311a.944.944,0,1,1,0-1.888H56.224V37.768a9.159,9.159,0,0,0-9.149-9.149H45.622a.944.944,0,0,1-.944-.944V23.2a.944.944,0,1,1,1.888,0v3.534h.51A11.049,11.049,0,0,1,58.112,37.768V54.98a.943.943,0,0,1-.944.944M25.516,34.109a.943.943,0,0,1-.838-1.377,11.018,11.018,0,0,1,9.815-6H35V23.2a.944.944,0,1,1,1.888,0v4.477a.944.944,0,0,1-.944.944H34.492a9.132,9.132,0,0,0-8.137,4.98.945.945,0,0,1-.84.511" transform="translate(-1.381 -1.251)"/>
        <path id="Trazado_986411" data-name="Trazado 986411" d="M26.664,56.146H25.23a.944.944,0,1,1,0-1.888h1.435a.944.944,0,1,1,0,1.888" transform="translate(-1.365 -3.049)"/>
        <path id="Trazado_986412" data-name="Trazado 986412" d="M14.748,30.064H12.253a4.151,4.151,0,0,1-2.922-1.722,14.781,14.781,0,0,1-2.684-9.267.943.943,0,0,1,.936-.825h14.33a.945.945,0,0,1,.937.824,14.771,14.771,0,0,1-2.684,9.265,4.142,4.142,0,0,1-2.85,1.722ZM8.481,20.138A13.294,13.294,0,0,0,10.8,27.153a2.51,2.51,0,0,0,1.532,1.026l4.912,0a2.554,2.554,0,0,0,1.46-1.025,13.281,13.281,0,0,0,2.315-7.013Z" transform="translate(-0.371 -1.026)"/>
        <path id="Trazado_986413" data-name="Trazado 986413" d="M5.04,56.146H3.606a.944.944,0,1,1,0-1.888H5.04a.944.944,0,1,1,0,1.888" transform="translate(-0.15 -3.049)"/>
        <path id="Trazado_986414" data-name="Trazado 986414" d="M14.972,36.71a7.521,7.521,0,1,0,7.518,7.519,7.519,7.519,0,0,0-7.518-7.519" transform="translate(-0.419 -2.063)" fill="#ffca28" fill-rule="evenodd"/>
        <path id="Trazado_986415" data-name="Trazado 986415" d="M15.258,48.721h-.019a2.708,2.708,0,0,1-2.832-2.6.944.944,0,0,1,1.883-.14.839.839,0,0,0,.953.848h.01a1.2,1.2,0,0,0,.825-.255.454.454,0,0,0,.131-.345c0-.288,0-.723-1.09-.877-2.523-.45-2.607-2.251-2.528-3a2.725,2.725,0,0,1,2.978-2.2,2.346,2.346,0,0,1,2.33,2.29.943.943,0,0,1-.932.956.958.958,0,0,1-.956-.931c0-.325-.314-.414-.575-.432-.343-.029-.905.108-.975.563-.033.327-.074.714.954.9,2.416.341,2.68,2.03,2.68,2.741a2.317,2.317,0,0,1-.686,1.682,3,3,0,0,1-2.153.806" transform="translate(-0.697 -2.256)"/>
        <path id="Trazado_986416" data-name="Trazado 986416" d="M15.384,49.81a.944.944,0,0,1-.944-.945V47.713a.944.944,0,0,1,1.888,0v1.152a.944.944,0,0,1-.944.945m0-7.846a.943.943,0,0,1-.944-.944v-1.1a.944.944,0,1,1,1.888,0v1.1a.943.943,0,0,1-.944.944" transform="translate(-0.811 -2.19)"/>
        <path id="Trazado_986417" data-name="Trazado 986417" d="M20.229,42.5A7.523,7.523,0,0,1,9.5,49.3a7.711,7.711,0,0,0,.869.824A7.519,7.519,0,1,0,18.3,37.473,7.476,7.476,0,0,1,20.229,42.5" transform="translate(-0.534 -2.106)" fill="#ffb300" fill-rule="evenodd"/>
        <path id="Trazado_986418" data-name="Trazado 986418" d="M14.916,52.639a8.465,8.465,0,1,1,8.463-8.466,8.474,8.474,0,0,1-8.463,8.466m0-15.041a6.577,6.577,0,1,0,6.575,6.575A6.582,6.582,0,0,0,14.916,37.6" transform="translate(-0.363 -2.007)"/>
        <path id="Trazado_986419" data-name="Trazado 986419" d="M15.176,30.427a.943.943,0,0,1-.944-.944V25.666a.944.944,0,1,1,1.888,0v3.818a.943.943,0,0,1-.944.944" transform="translate(-0.8 -1.389)"/>
        <path id="Trazado_986420" data-name="Trazado 986420" d="M50.772,57.009a.943.943,0,0,1-.944-.944V42.523a.944.944,0,0,1,1.888,0V56.065a.943.943,0,0,1-.944.944" transform="translate(-2.8 -2.337)"/>
        <path id="Trazado_986421" data-name="Trazado 986421" d="M38.066,16.592a.93.93,0,0,1-.35-.067.944.944,0,0,1-.527-1.227.954.954,0,0,1,1.234-.542.928.928,0,0,1,.532,1.21L38.943,16a.944.944,0,0,1-.877.594" transform="translate(-2.086 -0.825)"/>
        <path id="Trazado_986422" data-name="Trazado 986422" d="M45.31,16.592a.956.956,0,0,1-.283-.043.944.944,0,0,1-.617-1.184.958.958,0,0,1,1.189-.633.93.93,0,0,1,.622,1.167l-.01.032a.944.944,0,0,1-.9.661" transform="translate(-2.493 -0.825)"/>
      </g>
    </g>
  </g>
</svg>
