<svg xmlns="http://www.w3.org/2000/svg" xmlns:xlink="http://www.w3.org/1999/xlink" width="108" height="108" viewBox="0 0 108 108">
  <defs>
    <filter id="Fondo" x="0" y="0" width="108" height="108" filterUnits="userSpaceOnUse">
      <feOffset dy="3" input="SourceAlpha"/>
      <feGaussianBlur stdDeviation="3" result="blur"/>
      <feFlood flood-opacity="0.161"/>
      <feComposite operator="in" in2="blur"/>
      <feComposite in="SourceGraphic"/>
    </filter>
    <clipPath id="clip-path">
      <rect id="Rectángulo_408195" data-name="Rectángulo 408195" width="62" height="60.598" transform="translate(0 0)" fill="none"/>
    </clipPath>
  </defs>
  <g id="Icono" transform="translate(8.5 -689)">
    <g transform="matrix(1, 0, 0, 1, -8.5, 689)" filter="url(#Fondo)">
      <g id="Fondo-2" data-name="Fondo" transform="translate(9 6)" fill="#e6d567" stroke="#bca724" stroke-width="3">
        <circle cx="45" cy="45" r="45" stroke="none"/>
        <circle cx="45" cy="45" r="43.5" fill="none"/>
      </g>
    </g>
    <g id="Grupo_1151634" data-name="Grupo 1151634" transform="translate(14.5 712.329)">
      <g id="Grupo_1151633" data-name="Grupo 1151633" clip-path="url(#clip-path)">
        <path id="Trazado_986424" data-name="Trazado 986424" d="M27.966,12.981c.031-.024.062-.048.089-.072C29.41-.585,7.125-2.587,1,6.653c5.263,10.924,21.436,10.684,26.966,6.328" fill="#00c835" fill-rule="evenodd"/>
        <path id="Trazado_986425" data-name="Trazado 986425" d="M34.03,12.981c-.027-.024-.058-.048-.089-.072C32.586-.585,54.871-2.587,61,6.653c-5.264,10.924-21.44,10.684-26.97,6.328" fill="#00c835" fill-rule="evenodd"/>
        <path id="Trazado_986426" data-name="Trazado 986426" d="M26.029,11.557C19.7,14.514,7.18,13.976,1.835,5.568A9.018,9.018,0,0,0,1,6.653c5.263,10.924,21.436,10.684,26.966,6.328l.089-.072a10.852,10.852,0,0,0-.034-2.563,10.064,10.064,0,0,1-1.992,1.211" fill="#00a82c" fill-rule="evenodd"/>
        <path id="Trazado_986427" data-name="Trazado 986427" d="M34.03,12.981c5.53,4.356,21.706,4.6,26.97-6.328a9.687,9.687,0,0,0-.839-1.085c-5.342,8.409-17.863,8.946-24.194,5.989a10.017,10.017,0,0,1-1.992-1.211,11.014,11.014,0,0,0-.034,2.563Z" fill="#00a82c" fill-rule="evenodd"/>
        <path id="Trazado_986428" data-name="Trazado 986428" d="M31,22.324a1,1,0,0,1-1-1v-2.4a6.815,6.815,0,0,0-2.553-5.067c-3.326-3.015-9.589-5.01-15.2-4.871H12.22a1,1,0,0,1-.026-2c5-.134,12.305,1.5,16.595,5.389A8.836,8.836,0,0,1,32,18.922v2.4a1,1,0,0,1-1,1"/>
        <path id="Trazado_986429" data-name="Trazado 986429" d="M30.458,21.317A19.141,19.141,0,1,0,49.6,40.457a19.14,19.14,0,0,0-19.139-19.14" fill="#ffea00" fill-rule="evenodd"/>
        <path id="Trazado_986430" data-name="Trazado 986430" d="M30.413,27.3a13.219,13.219,0,1,0,13.22,13.217A13.216,13.216,0,0,0,30.413,27.3" fill="#ffca28" fill-rule="evenodd"/>
        <path id="Trazado_986431" data-name="Trazado 986431" d="M30.413,49.319a1,1,0,0,1-1-1V46.31a1,1,0,0,1,2,0v2.009a1,1,0,0,1-1,1m0-13.686a1,1,0,0,1-1-1v-1.92a1,1,0,1,1,2,0v1.92a1,1,0,0,1-1,1"/>
        <path id="Trazado_986432" data-name="Trazado 986432" d="M39.369,37.148a19.134,19.134,0,0,1-9.558,16.574c.2.01.4.013.6.013A13.221,13.221,0,0,0,37.8,29.551a19.127,19.127,0,0,1,1.567,7.6" fill="#ffb300" fill-rule="evenodd"/>
        <path id="Trazado_986433" data-name="Trazado 986433" d="M43.633,40.516a13.218,13.218,0,0,1-13.22,13.22c-.2,0-.4,0-.6-.014a19.056,19.056,0,0,1-9.582,2.567c-.181,0-.363,0-.544-.007A19.142,19.142,0,1,0,31,21.324a19.247,19.247,0,0,1,6.8,8.227,13.207,13.207,0,0,1,5.831,10.965" fill="#ffca28" fill-rule="evenodd"/>
        <path id="Trazado_986434" data-name="Trazado 986434" d="M30.413,54.736a14.219,14.219,0,1,1,14.22-14.221,14.235,14.235,0,0,1-14.22,14.221m0-26.437a12.219,12.219,0,1,0,12.22,12.216A12.23,12.23,0,0,0,30.413,28.3"/>
        <path id="Trazado_986435" data-name="Trazado 986435" d="M30.458,60.6A20.141,20.141,0,1,1,50.6,40.458,20.164,20.164,0,0,1,30.458,60.6m0-38.281A18.141,18.141,0,1,0,48.6,40.458a18.162,18.162,0,0,0-18.14-18.141"/>
        <path id="Trazado_986436" data-name="Trazado 986436" d="M30.392,47.354A4.1,4.1,0,0,1,26.1,43.423a1,1,0,0,1,1.994-.148,2.1,2.1,0,0,0,2.3,2.079h.021a2.854,2.854,0,0,0,1.749-.5,1.445,1.445,0,0,0,.567-1.19c0-.9-.292-1.866-2.459-2.17-3.706-.664-4.007-3.127-3.861-4.537a4.108,4.108,0,0,1,4.514-3.266,3.426,3.426,0,0,1,3.46,3.356,1,1,0,0,1-.986,1.014h-.014a1,1,0,0,1-1-.986c-.017-1.186-1.228-1.363-1.6-1.389A2.146,2.146,0,0,0,28.4,37.212c-.113,1.107.212,1.95,2.194,2.306,3.6.5,4.143,2.814,4.143,4.146A3.443,3.443,0,0,1,33.4,46.427a4.762,4.762,0,0,1-2.975.927h-.031"/>
        <path id="Trazado_986437" data-name="Trazado 986437" d="M17.74,16.776a24.727,24.727,0,0,1-5.359-.578C6.679,14.926,2.316,11.69.1,7.087A1,1,0,0,1,.167,6.1C4.126.129,14.034-1.3,20.8,1.118c5.8,2.068,8.8,6.4,8.252,11.891a1,1,0,0,1-.365.675c-2.437,1.983-6.593,3.092-10.946,3.092M2.165,6.739c2.559,4.8,7.172,6.73,10.651,7.507,5.868,1.308,11.6.044,14.28-1.863C27.46,6.528,22.915,4,20.127,3,14.255.906,5.811,1.946,2.165,6.739"/>
        <path id="Trazado_986438" data-name="Trazado 986438" d="M31,22.324a1,1,0,0,1-1-1v-2.4a8.828,8.828,0,0,1,3.214-6.549C37.5,8.485,44.821,6.853,49.8,6.985a1,1,0,1,1-.053,2c-5.627-.133-11.869,1.856-15.194,4.871A6.807,6.807,0,0,0,32,18.922v2.4a1,1,0,0,1-1,1"/>
        <path id="Trazado_986439" data-name="Trazado 986439" d="M44.258,16.776c-4.352,0-8.508-1.108-10.948-3.091a1,1,0,0,1-.364-.676C32.4,7.522,35.4,3.188,41.195,1.12,47.961-1.3,57.872.127,61.833,6.1a1,1,0,0,1,.068.987c-2.218,4.6-6.578,7.838-12.279,9.11a24.7,24.7,0,0,1-5.364.579M34.9,12.383c2.681,1.908,8.415,3.172,14.285,1.863,3.479-.777,8.09-2.712,10.649-7.507C56.186,1.945,47.739.909,41.867,3,39.08,4,34.536,6.529,34.9,12.383"/>
      </g>
    </g>
  </g>
</svg>
