<svg xmlns="http://www.w3.org/2000/svg" xmlns:xlink="http://www.w3.org/1999/xlink" width="108" height="108" viewBox="0 0 108 108">
  <defs>
    <filter id="Fondo" x="0" y="0" width="108" height="108" filterUnits="userSpaceOnUse">
      <feOffset dy="3" input="SourceAlpha"/>
      <feGaussianBlur stdDeviation="3" result="blur"/>
      <feFlood flood-opacity="0.161"/>
      <feComposite operator="in" in2="blur"/>
      <feComposite in="SourceGraphic"/>
    </filter>
    <clipPath id="clip-path">
      <rect id="Rectángulo_408196" data-name="Rectángulo 408196" width="62" height="56.387" transform="translate(0 0)" fill="none"/>
    </clipPath>
  </defs>
  <g id="Icono" transform="translate(8.5 -689)">
    <g transform="matrix(1, 0, 0, 1, -8.5, 689)" filter="url(#Fondo)">
      <g id="Fondo-2" data-name="Fondo" transform="translate(9 6)" fill="#e6d567" stroke="#bca724" stroke-width="3">
        <circle cx="45" cy="45" r="45" stroke="none"/>
        <circle cx="45" cy="45" r="43.5" fill="none"/>
      </g>
    </g>
    <g id="Grupo_1151636" data-name="Grupo 1151636" transform="translate(13.5 709.807)">
      <g id="Grupo_1151635" data-name="Grupo 1151635" clip-path="url(#clip-path)">
        <path id="Trazado_986440" data-name="Trazado 986440" d="M51.817,49.024H37.536a3.841,3.841,0,0,1,.451,4.658H58.9a2.113,2.113,0,0,0,2.1-2.1V29.887a2.112,2.112,0,0,0-2.1-2.1H34.615V32.44h17.2a4.111,4.111,0,0,0,4.112,4.108v8.367a4.109,4.109,0,0,0-4.112,4.109" fill="#00c835" fill-rule="evenodd"/>
        <path id="Trazado_986441" data-name="Trazado 986441" d="M16.1,14.7h6.884c4.223-.337,6.974-9.576,6.446-13.7H9.651C9.126,5.126,11.877,14.365,16.1,14.7" fill="#d66c45" fill-rule="evenodd"/>
        <path id="Trazado_986442" data-name="Trazado 986442" d="M19.542,14.7H15.43A10.993,10.993,0,0,0,4.469,25.663V47.909c-4.508,0-4.741,7.478,0,7.478H34.615a3.791,3.791,0,0,0,3.372-1.706,3.838,3.838,0,0,0-.451-4.657,3.957,3.957,0,0,0-2.921-1.115V25.663a10.875,10.875,0,0,0-1.9-6.14A10.928,10.928,0,0,0,23.651,14.7H19.542Z" fill="#d66c45" fill-rule="evenodd"/>
        <path id="Trazado_986443" data-name="Trazado 986443" d="M37.536,49.024H51.817a4.109,4.109,0,0,1,4.112-4.109V36.548a4.111,4.111,0,0,1-4.112-4.108h-17.2v4.768a4.84,4.84,0,1,1,0,7.047v3.654a3.96,3.96,0,0,1,2.921,1.115" fill="#ccff90" fill-rule="evenodd"/>
        <path id="Trazado_986444" data-name="Trazado 986444" d="M37.932,45.571a4.842,4.842,0,1,0-3.317-8.363v7.047a4.817,4.817,0,0,0,3.317,1.316" fill="#00c835" fill-rule="evenodd"/>
        <path id="Trazado_986445" data-name="Trazado 986445" d="M38.7,27.782H46.24v-4.15a4.112,4.112,0,0,1-4.113-4.109H32.719a10.875,10.875,0,0,1,1.9,6.14v2.119Z" fill="#ccff90" fill-rule="evenodd"/>
        <path id="Trazado_986446" data-name="Trazado 986446" d="M42.127,19.523a4.111,4.111,0,0,0,4.112,4.109v4.15H51.31V16.97a2.113,2.113,0,0,0-2.1-2.1H25.536a11.014,11.014,0,0,1,7.182,4.658Z" fill="#00c835" fill-rule="evenodd"/>
        <path id="Trazado_986447" data-name="Trazado 986447" d="M25.321,1c.524,4.126-2.226,13.365-6.449,13.7h4.112c4.223-.337,6.974-9.576,6.446-13.7Z" fill="#ca572e" fill-rule="evenodd"/>
        <path id="Trazado_986448" data-name="Trazado 986448" d="M32.719,19.523A10.928,10.928,0,0,0,23.651,14.7H19.542A10.993,10.993,0,0,1,30.5,25.664V49.625a2.9,2.9,0,1,1,0,5.762h4.112a3.8,3.8,0,0,0,3.373-1.705,3.839,3.839,0,0,0-.452-4.658,3.96,3.96,0,0,0-2.921-1.115V25.664a10.875,10.875,0,0,0-1.9-6.141" fill="#ca572e" fill-rule="evenodd"/>
        <path id="Trazado_986449" data-name="Trazado 986449" d="M43.447,25.08H34.6c.01.191.017.389.017.583v2.119H46.239v-2.7Z" fill="#b2ff59" fill-rule="evenodd"/>
        <path id="Trazado_986450" data-name="Trazado 986450" d="M46.239,25.08v2.7H51.31V16.97a2.113,2.113,0,0,0-2.1-2.1h-.684v7.117c0,1.563.34,3.1-1.1,3.1Z" fill="#00a82c" fill-rule="evenodd"/>
        <path id="Trazado_986451" data-name="Trazado 986451" d="M39.686,39.226a4.843,4.843,0,0,1-4.841,4.842c-.077,0-.153,0-.23-.007v.194a4.841,4.841,0,1,0,3.762-8.346,4.835,4.835,0,0,1,1.309,3.317" fill="#00a82c" fill-rule="evenodd"/>
        <path id="Trazado_986452" data-name="Trazado 986452" d="M55.929,36.548a4.093,4.093,0,0,1-2.772-1.073,24.477,24.477,0,0,1-6.831,13.549h5.491a4.109,4.109,0,0,1,4.112-4.109Z" fill="#b2ff59" fill-rule="evenodd"/>
        <path id="Trazado_986453" data-name="Trazado 986453" d="M53.158,35.475a4.091,4.091,0,0,0,2.772,1.073v8.367a4.109,4.109,0,0,0-4.113,4.109H46.326a26.158,26.158,0,0,1-6.195,4.657H58.9a2.112,2.112,0,0,0,2.1-2.1V29.887a2.112,2.112,0,0,0-2.1-2.1H53.064a24.281,24.281,0,0,1,.358,4.14,23.956,23.956,0,0,1-.264,3.553" fill="#00a82c" fill-rule="evenodd"/>
        <path id="Trazado_986454" data-name="Trazado 986454" d="M34.616,56.387H4.469a4.25,4.25,0,0,1-3.379-1.5A4.929,4.929,0,0,1,0,51.719a4.667,4.667,0,0,1,3.469-4.7V25.663A11.975,11.975,0,0,1,15.43,13.7h8.221A11.977,11.977,0,0,1,35.616,25.663V46.99a4.621,4.621,0,0,1,3.954,4.643,4.7,4.7,0,0,1-4.954,4.754M15.43,15.7a9.972,9.972,0,0,0-9.961,9.961V47.91a1,1,0,0,1-1,1A2.557,2.557,0,0,0,2,51.719a2.428,2.428,0,0,0,2.469,2.668H34.616a2.746,2.746,0,1,0,0-5.477,1,1,0,0,1-1-1V25.663A9.975,9.975,0,0,0,23.651,15.7Z"/>
        <path id="Trazado_986455" data-name="Trazado 986455" d="M34.615,48.909H32.638a1,1,0,0,1,0-2h1.977a1,1,0,0,1,0,2"/>
        <path id="Trazado_986456" data-name="Trazado 986456" d="M58.9,54.682H37.987a1,1,0,0,1,0-2H58.9a1.106,1.106,0,0,0,1.1-1.1V29.887a1.106,1.106,0,0,0-1.1-1.1H35.616V47.91a1,1,0,0,1-2,0V27.782a1,1,0,0,1,1-1H58.9a3.108,3.108,0,0,1,3.1,3.1v21.69a3.108,3.108,0,0,1-3.1,3.1"/>
        <path id="Trazado_986457" data-name="Trazado 986457" d="M51.817,50.023H37.536a1,1,0,0,1,0-2H50.915a5.128,5.128,0,0,1,4.014-4.011V37.45a5.128,5.128,0,0,1-4.014-4.011h-16.3a1,1,0,0,1,0-2h17.2a1,1,0,0,1,1,1,3.113,3.113,0,0,0,3.112,3.108,1,1,0,0,1,1,1v8.368a1,1,0,0,1-1,1,3.113,3.113,0,0,0-3.112,3.108,1,1,0,0,1-1,1"/>
        <path id="Trazado_986458" data-name="Trazado 986458" d="M37.932,46.571a5.808,5.808,0,0,1-4-1.589A1,1,0,0,1,35.3,43.527a3.844,3.844,0,1,0,0-5.592,1,1,0,0,1-1.373-1.455,5.84,5.84,0,1,1,4,10.091"/>
        <path id="Trazado_986459" data-name="Trazado 986459" d="M48.372,41.73a.978.978,0,0,1-.4-.084,1,1,0,0,1-.516-1.316A1.014,1.014,0,0,1,48.78,39.8a.985.985,0,0,1,.522,1.3l-.013.031a1,1,0,0,1-.917.6"/>
        <path id="Trazado_986460" data-name="Trazado 986460" d="M51.31,28.782a1,1,0,0,1-1-1V16.97a1.106,1.106,0,0,0-1.1-1.1H25.533a1,1,0,0,1,0-2H49.206a3.108,3.108,0,0,1,3.1,3.1V27.782a1,1,0,0,1-1,1"/>
        <path id="Trazado_986461" data-name="Trazado 986461" d="M46.239,28.782a1,1,0,0,1-1-1V24.533a5.127,5.127,0,0,1-4.014-4.01H32.718a1,1,0,0,1,0-2h9.409a1,1,0,0,1,1,1,3.114,3.114,0,0,0,3.112,3.109,1,1,0,0,1,1,1v4.15a1,1,0,0,1-1,1"/>
        <path id="Trazado_986462" data-name="Trazado 986462" d="M38.682,28.814a1,1,0,0,1-.916-1.4,1.014,1.014,0,0,1,1.324-.531.984.984,0,0,1,.522,1.3l-.013.031a1,1,0,0,1-.917.6"/>
        <path id="Trazado_986463" data-name="Trazado 986463" d="M19.542,15.7H16.1a5.432,5.432,0,0,1-3.8-2.26C9.709,10.249,8.239,4.173,8.658.874A1,1,0,0,1,9.65,0H29.429a1,1,0,0,1,.992.873,20.017,20.017,0,0,1-3.639,12.566,5.426,5.426,0,0,1-3.719,2.26ZM10.587,2c-.03,2.948,1.269,7.72,3.269,10.181A3.554,3.554,0,0,0,16.179,13.7l6.8,0a3.59,3.59,0,0,0,2.247-1.524c2-2.462,3.3-7.232,3.263-10.178Z"/>
        <path id="Trazado_986464" data-name="Trazado 986464" d="M6.445,48.909H4.469a1,1,0,0,1,0-2H6.445a1,1,0,0,1,0,2"/>
        <path id="Trazado_986465" data-name="Trazado 986465" d="M19.785,24.854a9.131,9.131,0,1,0,9.131,9.131,9.131,9.131,0,0,0-9.131-9.131" fill="#ffca28" fill-rule="evenodd"/>
        <path id="Trazado_986466" data-name="Trazado 986466" d="M19.8,39.059a.113.113,0,0,1-.026,0,3.145,3.145,0,0,1-3.291-3.017,1,1,0,1,1,1.994-.148,1.157,1.157,0,0,0,1.3,1.165h.015a1.575,1.575,0,0,0,1.1-.351.7.7,0,0,0,.2-.521c0-.377,0-1.009-1.448-1.212-2.838-.512-3.062-2.407-2.947-3.492a3.152,3.152,0,0,1,3.462-2.542,2.7,2.7,0,0,1,2.693,2.634,1,1,0,0,1-.986,1.013.989.989,0,0,1-1.014-.986c-.007-.529-.524-.645-.832-.666-.469-.034-1.24.157-1.34.8-.055.531,0,1.028,1.28,1.259,2.72.38,3.132,2.161,3.132,3.187a2.673,2.673,0,0,1-.79,1.937,3.5,3.5,0,0,1-2.509.935"/>
        <path id="Trazado_986467" data-name="Trazado 986467" d="M19.806,40.459a1,1,0,0,1-1-1v-1.4a1,1,0,0,1,2,0v1.4a1,1,0,0,1-1,1m0-9.527a1,1,0,0,1-1-1V28.595a1,1,0,0,1,2,0v1.337a1,1,0,0,1-1,1"/>
        <path id="Trazado_986468" data-name="Trazado 986468" d="M26.026,31.835A9.133,9.133,0,0,1,13,40.094a8.99,8.99,0,0,0,1.055,1,9.132,9.132,0,1,0,9.631-15.368,9.1,9.1,0,0,1,2.341,6.109" fill="#ffb300" fill-rule="evenodd"/>
        <path id="Trazado_986469" data-name="Trazado 986469" d="M19.785,44.116A10.131,10.131,0,1,1,29.916,33.984,10.143,10.143,0,0,1,19.785,44.116m0-18.262a8.131,8.131,0,1,0,8.131,8.13,8.14,8.14,0,0,0-8.131-8.13"/>
        <path id="Trazado_986470" data-name="Trazado 986470" d="M19.542,15.7a1,1,0,0,1-1-1V9.43a1,1,0,0,1,2,0V14.7a1,1,0,0,1-1,1"/>
      </g>
    </g>
  </g>
</svg>
