<svg xmlns="http://www.w3.org/2000/svg" xmlns:xlink="http://www.w3.org/1999/xlink" width="108" height="108" viewBox="0 0 108 108">
  <defs>
    <filter id="Fondo" x="0" y="0" width="108" height="108" filterUnits="userSpaceOnUse">
      <feOffset dy="3" input="SourceAlpha"/>
      <feGaussianBlur stdDeviation="3" result="blur"/>
      <feFlood flood-opacity="0.161"/>
      <feComposite operator="in" in2="blur"/>
      <feComposite in="SourceGraphic"/>
    </filter>
    <clipPath id="clip-path">
      <rect id="Rectángulo_408197" data-name="Rectángulo 408197" width="56.532" height="62" fill="none"/>
    </clipPath>
  </defs>
  <g id="Icono" transform="translate(8.5 -689)">
    <g transform="matrix(1, 0, 0, 1, -8.5, 689)" filter="url(#Fondo)">
      <g id="Fondo-2" data-name="Fondo" transform="translate(9 6)" fill="#e6d567" stroke="#bca724" stroke-width="3">
        <circle cx="45" cy="45" r="45" stroke="none"/>
        <circle cx="45" cy="45" r="43.5" fill="none"/>
      </g>
    </g>
    <g id="Grupo_1151638" data-name="Grupo 1151638" transform="translate(12.5 709)">
      <g id="Grupo_1151637" data-name="Grupo 1151637" clip-path="url(#clip-path)">
        <path id="Trazado_986471" data-name="Trazado 986471" d="M23.219,57.228A3.774,3.774,0,1,0,19.444,61a3.773,3.773,0,0,0,3.775-3.772" fill="#757575" fill-rule="evenodd"/>
        <path id="Trazado_986472" data-name="Trazado 986472" d="M44.466,57.228a3.772,3.772,0,1,0,3.772-3.772,3.774,3.774,0,0,0-3.772,3.772" fill="#757575" fill-rule="evenodd"/>
        <path id="Trazado_986473" data-name="Trazado 986473" d="M11.946,20.024l-.658-4.018H2.765A1.773,1.773,0,0,0,1,17.775v.48a1.772,1.772,0,0,0,1.765,1.769Z" fill="#757575" fill-rule="evenodd"/>
        <path id="Trazado_986474" data-name="Trazado 986474" d="M43.516,28.771V7.541A1.939,1.939,0,0,0,41.58,5.609H21.639A1.939,1.939,0,0,0,19.7,7.541v21.23l12.358,2.847Z" fill="#00c835" fill-rule="evenodd"/>
        <path id="Trazado_986475" data-name="Trazado 986475" d="M39.235,28.771V14.049a3.78,3.78,0,0,1-3.783-3.779H27.763a3.777,3.777,0,0,1-3.779,3.779V28.771l8.077,2.847Z" fill="#ccff90" fill-rule="evenodd"/>
        <path id="Trazado_986476" data-name="Trazado 986476" d="M35.225,26.29a3.615,3.615,0,1,0-6.245,2.48h5.259a3.6,3.6,0,0,0,.986-2.48" fill="#00c835" fill-rule="evenodd"/>
        <path id="Trazado_986477" data-name="Trazado 986477" d="M23.564,5.608H41.58A1.939,1.939,0,0,1,43.516,7.54V28.77h3.857V2.932A1.938,1.938,0,0,0,45.438,1H25.5a1.936,1.936,0,0,0-1.932,1.932Z" fill="#00a82c" fill-rule="evenodd"/>
        <path id="Trazado_986478" data-name="Trazado 986478" d="M42.765,3.317h-19.2V5.609H41.58a1.939,1.939,0,0,1,1.936,1.932v21.23h2.21V6.879a3.5,3.5,0,0,0-2.961-3.562" fill="#008a22" fill-rule="evenodd"/>
        <path id="Trazado_986479" data-name="Trazado 986479" d="M35.225,26.29a3.613,3.613,0,0,0-2.95-3.551,21.33,21.33,0,0,1-2.366,6.031h4.33a3.6,3.6,0,0,0,.986-2.48" fill="#00a82c" fill-rule="evenodd"/>
        <path id="Trazado_986480" data-name="Trazado 986480" d="M32.275,22.739a3.613,3.613,0,0,1,1.964,6.032h5V14.049a3.779,3.779,0,0,1-3.782-3.779H31.7a23.013,23.013,0,0,1,1.157,7.263,23.234,23.234,0,0,1-.584,5.206" fill="#b2ff59" fill-rule="evenodd"/>
        <path id="Trazado_986481" data-name="Trazado 986481" d="M39.235,14.049V28.771h4.281V7.541A1.94,1.94,0,0,0,41.58,5.608H29.489A20.888,20.888,0,0,1,31.7,10.27h3.75a3.78,3.78,0,0,0,3.783,3.779" fill="#00a82c" fill-rule="evenodd"/>
        <path id="Trazado_986482" data-name="Trazado 986482" d="M43.516,29.771a1,1,0,0,1-1-1V7.542a.936.936,0,0,0-.936-.934H21.639a.936.936,0,0,0-.936.934V28.771a1,1,0,0,1-2,0V7.542a2.938,2.938,0,0,1,2.936-2.934H41.58a2.938,2.938,0,0,1,2.936,2.934V28.771a1,1,0,0,1-1,1"/>
        <path id="Trazado_986483" data-name="Trazado 986483" d="M39.234,29.771H23.983a1,1,0,0,1-1-1V14.049a1,1,0,0,1,1-1,2.783,2.783,0,0,0,2.779-2.779,1,1,0,0,1,1-1h7.69a1,1,0,0,1,1,1,2.785,2.785,0,0,0,2.782,2.779,1,1,0,0,1,1,1V28.771a1,1,0,0,1-1,1m-14.251-2H38.234V14.944a4.8,4.8,0,0,1-3.677-3.674h-5.9a4.8,4.8,0,0,1-3.674,3.674Z"/>
        <path id="Trazado_986484" data-name="Trazado 986484" d="M34.239,29.771H28.98a1,1,0,0,1-.727-.313,4.615,4.615,0,1,1,6.713,0,1,1,0,0,1-.727.313m-4.786-2h4.313a2.615,2.615,0,1,0-4.313,0"/>
        <path id="Trazado_986485" data-name="Trazado 986485" d="M31.608,18.22a1,1,0,0,1-.452-.108,1.016,1.016,0,0,1-.453-1.353.991.991,0,0,1,1.33-.445l.029.014a1,1,0,0,1-.454,1.892"/>
        <path id="Trazado_986486" data-name="Trazado 986486" d="M47.373,29.771a1,1,0,0,1-1-1V2.933A.935.935,0,0,0,45.437,2H25.5a.933.933,0,0,0-.933.933V5.608a1,1,0,0,1-2,0V2.933A2.936,2.936,0,0,1,25.5,0H45.437a2.937,2.937,0,0,1,2.936,2.933V28.771a1,1,0,0,1-1,1"/>
        <path id="Trazado_986487" data-name="Trazado 986487" d="M16.692,48.922h34.04l3.1-15.544H14.141Z" fill="#f5f5f5" fill-rule="evenodd"/>
        <path id="Trazado_986488" data-name="Trazado 986488" d="M14.141,33.379H53.832a1.705,1.705,0,0,0,1.7-1.7V30.472a1.705,1.705,0,0,0-1.7-1.7H13.383l.431,2.633Z" fill="#40c3ff" fill-rule="evenodd"/>
        <path id="Trazado_986489" data-name="Trazado 986489" d="M14.6,36.19H48.747c2.341,0,1.747,1.274,1.295,3.526l-1.733,9.206h2.423l3.1-15.543H14.141Z" fill="#e0e0e0" fill-rule="evenodd"/>
        <path id="Trazado_986490" data-name="Trazado 986490" d="M50.366,30.472v1.206a1.706,1.706,0,0,1-1.7,1.7h5.17a1.705,1.705,0,0,0,1.7-1.7V30.472a1.705,1.705,0,0,0-1.7-1.7h-5.17a1.706,1.706,0,0,1,1.7,1.7" fill="#39ade3" fill-rule="evenodd"/>
        <path id="Trazado_986491" data-name="Trazado 986491" d="M44.466,58.227H23.219a1,1,0,0,1,0-2H44.466a1,1,0,1,1,0,2"/>
        <path id="Trazado_986492" data-name="Trazado 986492" d="M19.443,62a4.772,4.772,0,1,1,4.776-4.773A4.778,4.778,0,0,1,19.443,62m0-7.544a2.772,2.772,0,1,0,2.776,2.771,2.775,2.775,0,0,0-2.776-2.771"/>
        <path id="Trazado_986493" data-name="Trazado 986493" d="M48.238,62a4.772,4.772,0,1,1,4.772-4.773A4.778,4.778,0,0,1,48.238,62m0-7.544a2.772,2.772,0,1,0,2.772,2.771,2.775,2.775,0,0,0-2.772-2.771"/>
        <path id="Trazado_986494" data-name="Trazado 986494" d="M11.946,21.024H2.765A2.771,2.771,0,0,1,0,18.255v-.48a2.77,2.77,0,0,1,2.765-2.769h8.522a1,1,0,0,1,.987.838l.658,4.017a1,1,0,0,1-.986,1.163M2.765,17.006A.777.777,0,0,0,2,17.775v.48a.768.768,0,0,0,.765.769h8l-.33-2.018Z"/>
        <path id="Trazado_986495" data-name="Trazado 986495" d="M53.832,34.379H14.142a1,1,0,1,1,0-2h39.69a.7.7,0,0,0,.7-.7V30.472a.7.7,0,0,0-.7-.7H13.383a1,1,0,1,1,0-2H53.832a2.705,2.705,0,0,1,2.7,2.7v1.206a2.705,2.705,0,0,1-2.7,2.7"/>
        <path id="Trazado_986496" data-name="Trazado 986496" d="M50.732,49.923H16.692a1,1,0,0,1-.986-.838L10.3,16.168a1,1,0,0,1,.825-1.148.989.989,0,0,1,1.149.824l5.268,32.079h32.37l2.939-14.739a1,1,0,0,1,1.961.39l-3.1,15.544a1,1,0,0,1-.98.805"/>
        <path id="Trazado_986497" data-name="Trazado 986497" d="M17.446,54.506a1,1,0,0,1-.986-.838l-.754-4.583a1,1,0,0,1,1.973-.324l.755,4.583a1,1,0,0,1-.824,1.148.924.924,0,0,1-.164.014"/>
        <path id="Trazado_986498" data-name="Trazado 986498" d="M49.935,49.923H16.692a1,1,0,0,1,0-2H49.935a1,1,0,0,1,0,2"/>
        <path id="Trazado_986499" data-name="Trazado 986499" d="M51.764,44.741H15.842a1,1,0,1,1,0-2H51.764a1,1,0,1,1,0,2"/>
        <path id="Trazado_986500" data-name="Trazado 986500" d="M52.8,39.56h-37.8a1,1,0,1,1,0-2H52.8a1,1,0,0,1,0,2"/>
      </g>
    </g>
  </g>
</svg>
