<svg xmlns="http://www.w3.org/2000/svg" xmlns:xlink="http://www.w3.org/1999/xlink" width="108" height="108" viewBox="0 0 108 108">
  <defs>
    <filter id="Trazado_982538" x="0" y="0" width="108" height="108" filterUnits="userSpaceOnUse">
      <feOffset dy="3" input="SourceAlpha"/>
      <feGaussianBlur stdDeviation="3" result="blur"/>
      <feFlood flood-opacity="0.161"/>
      <feComposite operator="in" in2="blur"/>
      <feComposite in="SourceGraphic"/>
    </filter>
    <clipPath id="clip-path">
      <rect id="Rectángulo_408201" data-name="Rectángulo 408201" width="57.282" height="49.122" fill="none"/>
    </clipPath>
  </defs>
  <g id="Grupo_1151642" data-name="Grupo 1151642" transform="translate(-201 -3280)">
    <g id="Grupo_1151581" data-name="Grupo 1151581" transform="translate(0 -7010)">
      <g id="Grupo_1150893" data-name="Grupo 1150893" transform="translate(0 7321)">
        <g transform="matrix(1, 0, 0, 1, 201, 2969)" filter="url(#Trazado_982538)">
          <g id="Trazado_982538-2" data-name="Trazado 982538" transform="translate(9 6)" fill="#f3f3f3">
            <path d="M 45 88.5 C 39.12687683105469 88.5 33.43022537231445 87.35007476806641 28.06830024719238 85.08217620849609 C 22.88852500915527 82.89131164550781 18.23629951477051 79.75458526611328 14.2408504486084 75.75914764404297 C 10.24541282653809 71.76370239257812 7.108687400817871 67.11147308349609 4.917825222015381 61.93170166015625 C 2.649924993515015 56.56977462768555 1.5 50.87312316894531 1.5 45 C 1.5 39.12687683105469 2.649924993515015 33.43022537231445 4.917825222015381 28.06830024719238 C 7.108687400817871 22.88852500915527 10.24541282653809 18.23629951477051 14.2408504486084 14.2408504486084 C 18.23629951477051 10.24541282653809 22.88852500915527 7.108687400817871 28.06830024719238 4.917825222015381 C 33.43022537231445 2.649924993515015 39.12687683105469 1.5 45 1.5 C 50.87312316894531 1.5 56.56977462768555 2.649924993515015 61.93170166015625 4.917825222015381 C 67.11147308349609 7.108687400817871 71.76370239257812 10.24541282653809 75.75914764404297 14.2408504486084 C 79.75458526611328 18.23629951477051 82.89131164550781 22.88852500915527 85.08217620849609 28.06830024719238 C 87.35007476806641 33.43022537231445 88.5 39.12687683105469 88.5 45 C 88.5 50.87312316894531 87.35007476806641 56.56977462768555 85.08217620849609 61.93170166015625 C 82.89131164550781 67.11147308349609 79.75458526611328 71.76370239257812 75.75914764404297 75.75914764404297 C 71.76370239257812 79.75458526611328 67.11147308349609 82.89131164550781 61.93170166015625 85.08217620849609 C 56.56977462768555 87.35007476806641 50.87312316894531 88.5 45 88.5 Z" stroke="none"/>
            <path d="M 45 3 C 39.32871246337891 3 33.82865524291992 4.110054016113281 28.65262985229492 6.299339294433594 C 23.65165710449219 8.414573669433594 19.15968322753906 11.44334411621094 15.301513671875 15.301513671875 C 11.44334411621094 19.15968322753906 8.414573669433594 23.65165710449219 6.299339294433594 28.65262985229492 C 4.110054016113281 33.82865524291992 3 39.32871246337891 3 45 C 3 50.67128753662109 4.110054016113281 56.17134475708008 6.299339294433594 61.34737396240234 C 8.414573669433594 66.34834289550781 11.44334411621094 70.84031677246094 15.301513671875 74.698486328125 C 19.15968322753906 78.55665588378906 23.65165710449219 81.58542633056641 28.65262985229492 83.70066070556641 C 33.82865524291992 85.88994598388672 39.32871246337891 87 45 87 C 50.67128753662109 87 56.17134475708008 85.88994598388672 61.34737396240234 83.70066070556641 C 66.34834289550781 81.58542633056641 70.84031677246094 78.55665588378906 74.698486328125 74.698486328125 C 78.55665588378906 70.84031677246094 81.58542633056641 66.34834289550781 83.70066070556641 61.34737396240234 C 85.88994598388672 56.17134475708008 87 50.67128753662109 87 45 C 87 39.32871246337891 85.88994598388672 33.82865524291992 83.70066070556641 28.65262985229492 C 81.58542633056641 23.65165710449219 78.55665588378906 19.15968322753906 74.698486328125 15.301513671875 C 70.84031677246094 11.44334411621094 66.34834289550781 8.414573669433594 61.34737396240234 6.299339294433594 C 56.17134475708008 4.110054016113281 50.67128753662109 3 45 3 M 45 0 C 69.85281372070312 0 90 20.14718627929688 90 45 C 90 69.85281372070312 69.85281372070312 90 45 90 C 20.14718627929688 90 0 69.85281372070312 0 45 C 0 20.14718627929688 20.14718627929688 0 45 0 Z" stroke="none" fill="#fd7940"/>
          </g>
        </g>
      </g>
    </g>
    <g id="Grupo_1151641" data-name="Grupo 1151641" transform="translate(226.718 3305.878)">
      <path id="Trazado_986501" data-name="Trazado 986501" d="M32.41,38.509l-2.566,12.62h10.7V38.509Z" transform="translate(-2.271 -2.93)" fill="#40c3ff"/>
      <path id="Trazado_986502" data-name="Trazado 986502" d="M41.422,34.359V50.813h9.044V34.359Z" transform="translate(-3.152 -2.614)" fill="#40c3ff"/>
      <path id="Trazado_986503" data-name="Trazado 986503" d="M51.211,30.26V50.5h9.044V30.26Z" transform="translate(-3.897 -2.303)" fill="#40c3ff"/>
      <rect id="Rectángulo_408198" data-name="Rectángulo 408198" width="2.69" height="12.62" transform="translate(35.579 35.579)" fill="#39ade3"/>
      <rect id="Rectángulo_408199" data-name="Rectángulo 408199" width="2.69" height="16.454" transform="translate(44.624 31.745)" fill="#39ade3"/>
      <rect id="Rectángulo_408200" data-name="Rectángulo 408200" width="2.691" height="20.241" transform="translate(53.667 27.957)" fill="#39ade3"/>
      <g id="Grupo_1151640" data-name="Grupo 1151640">
        <g id="Grupo_1151639" data-name="Grupo 1151639" clip-path="url(#clip-path)">
          <path id="Trazado_986504" data-name="Trazado 986504" d="M40.676,51.976H32.852a.924.924,0,0,1,0-1.848h6.9V39.357H32.545a.924.924,0,0,1,0-1.848h8.131a.923.923,0,0,1,.924.924v12.62a.923.923,0,0,1-.924.924" transform="translate(-2.406 -2.854)"/>
          <path id="Trazado_986505" data-name="Trazado 986505" d="M41.114,28.065a.923.923,0,0,1-.924-.924v-8a.924.924,0,0,1,1.848,0v8a.923.923,0,0,1-.924.924" transform="translate(-3.058 -1.386)"/>
          <path id="Trazado_986506" data-name="Trazado 986506" d="M39.853,21.793a.924.924,0,0,1-.826-1.336l1.165-2.337a.924.924,0,0,1,.826-.511h0a.924.924,0,0,1,.826.51l1.169,2.337a.924.924,0,1,1-1.653.826L41.02,20.6l-.339.681a.924.924,0,0,1-.828.512" transform="translate(-2.962 -1.34)"/>
          <path id="Trazado_986507" data-name="Trazado 986507" d="M51.018,23.342a.924.924,0,0,1-.924-.924V14.425a.924.924,0,1,1,1.848,0v7.994a.924.924,0,0,1-.924.924" transform="translate(-3.812 -1.027)"/>
          <path id="Trazado_986508" data-name="Trazado 986508" d="M49.755,17.091a.924.924,0,0,1-.826-1.336l1.166-2.337a.923.923,0,0,1,1.653,0l1.169,2.337a.924.924,0,1,1-1.653.826l-.341-.683-.34.682a.924.924,0,0,1-.828.512" transform="translate(-3.716 -0.982)"/>
          <path id="Trazado_986509" data-name="Trazado 986509" d="M50.39,51.661H41.346a.923.923,0,0,1-.924-.924V34.282a.924.924,0,0,1,.924-.924H50.39a.924.924,0,0,1,.924.924V50.737a.923.923,0,0,1-.924.924m-8.12-1.848h7.2V35.206h-7.2Z" transform="translate(-3.076 -2.538)"/>
          <path id="Trazado_986510" data-name="Trazado 986510" d="M60.179,51.349H51.135a.923.923,0,0,1-.924-.924V30.185a.923.923,0,0,1,.924-.924h9.044a.923.923,0,0,1,.924.924v20.24a.923.923,0,0,1-.924.924M52.059,49.5h7.2V31.109h-7.2Z" transform="translate(-3.821 -2.227)"/>
          <path id="Trazado_986511" data-name="Trazado 986511" d="M14.737,12.908h5.986c3.671-.294,6.062-8.32,5.6-11.908H9.134c-.46,3.588,1.931,11.614,5.6,11.908" transform="translate(-0.691 -0.076)" fill="#d66c45" fill-rule="evenodd"/>
          <path id="Trazado_986512" data-name="Trazado 986512" d="M17.117,13.889H13.541a9.558,9.558,0,0,0-9.526,9.529V42.756c-3.916,0-4.122,6.5,0,6.5h26.2a3.3,3.3,0,0,0,2.934-1.484,3.337,3.337,0,0,0-.393-4.049,3.449,3.449,0,0,0-2.542-.967V23.418a9.441,9.441,0,0,0-1.647-5.337,9.513,9.513,0,0,0-7.878-4.192H17.117Z" transform="translate(-0.076 -1.057)" fill="#d66c45" fill-rule="evenodd"/>
          <path id="Trazado_986513" data-name="Trazado 986513" d="M23.417,1c.456,3.588-1.935,11.614-5.606,11.908h3.576c3.672-.294,6.063-8.32,5.6-11.908Z" transform="translate(-1.355 -0.076)" fill="#ca572e" fill-rule="evenodd"/>
          <path id="Trazado_986514" data-name="Trazado 986514" d="M29.895,18.081a9.513,9.513,0,0,0-7.879-4.192H18.444a9.513,9.513,0,0,1,7.878,4.192,9.441,9.441,0,0,1,1.647,5.337V33.453l0,9.377c0,1.475-.138,1.915,1.009,2.26,2.592.779,2.516,4.166-1.006,4.166h3.573a3.3,3.3,0,0,0,2.933-1.484,3.337,3.337,0,0,0-.393-4.049,3.447,3.447,0,0,0-2.541-.967V23.418a9.448,9.448,0,0,0-1.647-5.337" transform="translate(-1.403 -1.057)" fill="#ca572e" fill-rule="evenodd"/>
          <path id="Trazado_986515" data-name="Trazado 986515" d="M30.139,50.1H3.939A3.906,3.906,0,0,1,0,45.991a4.12,4.12,0,0,1,3.015-4.134V23.342a10.464,10.464,0,0,1,10.45-10.453h7.147a10.464,10.464,0,0,1,10.45,10.453V41.834A4.069,4.069,0,0,1,34.5,45.916,4.138,4.138,0,0,1,30.139,50.1M13.465,14.737a8.614,8.614,0,0,0-8.6,8.605V42.679a.923.923,0,0,1-.924.924,2.171,2.171,0,0,0-2.091,2.387,2.059,2.059,0,0,0,2.091,2.264h26.2a2.518,2.518,0,0,0,1.9-.729,2.363,2.363,0,0,0,.613-1.61A2.287,2.287,0,0,0,30.139,43.6a.923.923,0,0,1-.924-.924V23.342a8.614,8.614,0,0,0-8.6-8.605Z" transform="translate(0 -0.981)"/>
          <path id="Trazado_986516" data-name="Trazado 986516" d="M32.4,45.981H30.687a.924.924,0,0,1,0-1.848H32.4a.924.924,0,0,1,0,1.848" transform="translate(-2.265 -3.358)"/>
          <path id="Trazado_986517" data-name="Trazado 986517" d="M17.655,13.756H14.661a4.778,4.778,0,0,1-3.346-1.989A17.468,17.468,0,0,1,8.141.807.926.926,0,0,1,9.058,0H26.249a.924.924,0,0,1,.917.807,17.461,17.461,0,0,1-3.173,10.96,4.77,4.77,0,0,1-3.272,1.985ZM9.926,1.848A16.167,16.167,0,0,0,12.749,10.6a3.047,3.047,0,0,0,1.985,1.308l5.912,0A3.087,3.087,0,0,0,22.558,10.6a16.182,16.182,0,0,0,2.823-8.755Z" transform="translate(-0.615)"/>
          <path id="Trazado_986518" data-name="Trazado 986518" d="M5.9,45.981H4.188a.924.924,0,0,1,0-1.848H5.9a.924.924,0,0,1,0,1.848" transform="translate(-0.248 -3.358)"/>
          <path id="Trazado_986519" data-name="Trazado 986519" d="M18.018,23.574a7.936,7.936,0,1,0,7.936,7.936,7.937,7.937,0,0,0-7.936-7.936" transform="translate(-0.767 -1.794)" fill="#ffca28" fill-rule="evenodd"/>
          <path id="Trazado_986520" data-name="Trazado 986520" d="M18.439,36.263h-.019A2.784,2.784,0,0,1,15.5,33.588a.924.924,0,1,1,1.842-.133.957.957,0,0,0,1.08.96h.008c.192,0,1.08-.036,1.083-.709,0-.325,0-.822-1.214-.994-2.5-.451-2.708-2.129-2.61-3.09a2.813,2.813,0,0,1,3.072-2.265A2.406,2.406,0,0,1,21.152,29.7a.925.925,0,0,1-.913.936h-.011a.923.923,0,0,1-.924-.912c-.006-.4-.369-.505-.672-.528-.382-.029-1.027.127-1.109.657-.044.446,0,.838,1.071,1.031,2.4.34,2.768,1.914,2.768,2.822a2.642,2.642,0,0,1-2.924,2.553" transform="translate(-1.179 -2.081)"/>
          <path id="Trazado_986521" data-name="Trazado 986521" d="M18.616,37.383a.923.923,0,0,1-.924-.924V35.244a.924.924,0,1,1,1.848,0v1.216a.923.923,0,0,1-.924.924m0-8.278a.923.923,0,0,1-.924-.924V27.019a.924.924,0,0,1,1.848,0v1.162a.923.923,0,0,1-.924.924" transform="translate(-1.346 -1.986)"/>
          <path id="Trazado_986522" data-name="Trazado 986522" d="M23.613,29.7a7.937,7.937,0,0,1-11.327,7.18,7.937,7.937,0,1,0,9.287-12.488,7.907,7.907,0,0,1,2.04,5.309" transform="translate(-0.935 -1.856)" fill="#ffb300" fill-rule="evenodd"/>
          <path id="Trazado_986523" data-name="Trazado 986523" d="M17.942,40.3a8.861,8.861,0,1,1,8.86-8.861,8.871,8.871,0,0,1-8.86,8.861m0-15.874a7.013,7.013,0,1,0,7.012,7.012,7.021,7.021,0,0,0-7.012-7.012" transform="translate(-0.691 -1.718)"/>
          <path id="Trazado_986524" data-name="Trazado 986524" d="M18.368,14.36a.924.924,0,0,1-.924-.924V8.855a.924.924,0,0,1,1.848,0v4.581a.924.924,0,0,1-.924.924" transform="translate(-1.327 -0.603)"/>
        </g>
      </g>
    </g>
  </g>
</svg>
